<?xml version="1.0" encoding="UTF-8"?> <svg xmlns="http://www.w3.org/2000/svg" width="305" height="117" viewBox="0 0 305 117"><defs><style>.a{fill:none;}</style></defs><g transform="translate(-110 -589)"><rect class="a" width="305" height="117" transform="translate(110 589)"></rect><g transform="translate(208.8 561.52)"><g transform="translate(0 64.6)"><path d="M402.37,711.311a2.831,2.831,0,1,1-1.941-1.941l4.126-4.126a8.8,8.8,0,0,0-11.064.9,8.412,8.412,0,0,0,0,11.951,8.849,8.849,0,0,0,12.15,0,8.454,8.454,0,0,0,.9-10.927Z" transform="translate(-391 -703.379)"></path><path d="M551,718.4V701.6l11.034,10.82V702.2h2.9v16.8L553.9,708.217V718.4Z" transform="translate(-526.548 -701.6)"></path><path d="M696,721.7V705.5h2.9v13.571h6.434V721.7Z" transform="translate(-649.389 -704.904)"></path><path d="M804.6,721.7V705.5h2.9v16.184l-2.9.015Z" transform="translate(-741.392 -704.904)"></path><path d="M878.2,718.4V701.6l11.034,10.82V702.2h2.9v16.8L881.1,708.217V718.4Z" transform="translate(-803.744 -701.6)"></path><path d="M1023.2,721.7V705.5h10.315v2.629H1026.1v3.851h6.938v2.629H1026.1v4.462h7.565V721.7Z" transform="translate(-926.584 -704.904)"></path></g><g transform="translate(7.175 64.6)"><path d="M396.4,884.4V867.6l11.034,10.82V868.2h2.9v16.8L399.3,874.217V884.4h-2.9Z" transform="translate(-395.575 -842.231)"></path><path d="M541.4,887.7V871.5h10.316v2.628H544.3v3.851h6.938v2.628H544.3v4.463h7.565V887.7Z" transform="translate(-518.415 -845.536)"></path><path d="M659.6,887.7V871.5h6.3a5.107,5.107,0,0,1,3.714,1.482,4.823,4.823,0,0,1,1.528,3.653,4.909,4.909,0,0,1-2.95,4.6l3.928,6.464h-3.27l-3.454-5.762h-2.873V887.7Zm2.9-8.359h3.087a2.543,2.543,0,0,0,2.675-2.644,2.423,2.423,0,0,0-2.445-2.552H662.5Z" transform="translate(-618.551 -845.536)"></path><path d="M786.7,887.7V871.5h5.777a8.417,8.417,0,0,1,6.251,2.246,8.811,8.811,0,0,1,.015,11.737,8.519,8.519,0,0,1-6.25,2.2l-5.792.015Zm2.9-2.629h2.69c4.019,0,5.777-2.109,5.777-5.441,0-3.408-1.742-5.5-5.807-5.5h-2.674l.015,10.942Z" transform="translate(-726.227 -845.536)"></path><path d="M921.9,881.6a7.26,7.26,0,0,0,5.257,2.155c1.956,0,3.118-.9,3.118-2a1.867,1.867,0,0,0-.764-1.574,12.557,12.557,0,0,0-2.858-1.467c-2.781-1.192-4.294-2.46-4.294-4.783a3.686,3.686,0,0,1,1.528-3.133,6.168,6.168,0,0,1,3.9-1.192,6.818,6.818,0,0,1,3.927,1.116v2.95a5.663,5.663,0,0,0-3.851-1.421c-1.65,0-2.6.672-2.6,1.666-.092.535.4.993.795,1.345a8.176,8.176,0,0,0,1.192.657l.764.351c.367.168.626.26.749.321a9.662,9.662,0,0,1,3.362,2.155,4.259,4.259,0,0,1,1.039,3,4.164,4.164,0,0,1-1.528,3.3,6.519,6.519,0,0,1-4.294,1.3,9.045,9.045,0,0,1-5.41-1.651V881.6H921.9Z" transform="translate(-840.766 -843.926)"></path></g></g></g></svg> 