<?xml version="1.0" encoding="UTF-8"?> <svg xmlns="http://www.w3.org/2000/svg" width="305" height="117" viewBox="0 0 305 117"><defs><style>.a{fill:none;}</style></defs><g transform="translate(-720 -472)"><rect class="a" width="305" height="117" transform="translate(720 472)"></rect><g transform="translate(811.224 505.5)"><path d="M0,0V37.192H73.115V0ZM71.484,35.561H1.631V1.638H71.484ZM8.518,30.435V6.826H29.029v5.856H15.494v3.931H25.753v5.249H15.494v8.573Zm48.973,0V6.826h7.017V30.435Zm-4.532-2.519c0-.328.007-.635.02-.942v-.014c.007-.314.02-.621.02-.935,0-3.324-1.27-5.017-2.99-5.795l-.969-.437.921-.532A6.365,6.365,0,0,0,53.137,13.7a6.776,6.776,0,0,0-7.085-6.873H31.677V30.435h6.976V21.9h3.174a3.954,3.954,0,0,1,3.522,1.706c.328.526.73,1.392.771,4.007.034,2.191.177,2.512.369,2.819h7.023A4.317,4.317,0,0,1,52.959,27.916ZM43.5,17.6H38.646V11.9H43.67a2.657,2.657,0,0,1,2.914,2.566A2.961,2.961,0,0,1,43.5,17.6Zm40.919,3.631v1.966A1.809,1.809,0,0,0,86.3,25.241,1.761,1.761,0,0,0,88.226,23.4V6.928h7.187V23.609c0,3.761-3.01,7.317-9.071,7.317-5.89,0-9.112-3.638-9.112-7.774V21.227Zm25.93-14.961c-7.822,0-12.627,4.887-12.627,12.334s4.935,12.334,12.422,12.334c7.815,0,12.668-4.976,12.668-12.081C122.8,11.153,117.911,6.266,110.348,6.266Zm-.089,19.268c-2.717,0-5.269-1.843-5.269-7.276,0-4.43,2.259-6.566,5.228-6.566,2.8,0,5.31,1.925,5.31,7.023C115.528,23.568,113.017,25.534,110.259,25.534ZM1.543,42.393v5.713H4.955v1.3H0v-7.01Zm6.409.007v7.01H6.409V42.4Zm6.436,1.87a1.539,1.539,0,0,0-.341-.389,1.622,1.622,0,0,0-1.01-.355,1.825,1.825,0,0,0-.88.2,1.713,1.713,0,0,0-.587.539,2.372,2.372,0,0,0-.328.771,3.862,3.862,0,0,0-.1.894,3.616,3.616,0,0,0,.1.86,2.326,2.326,0,0,0,.328.751,1.63,1.63,0,0,0,.587.532,1.768,1.768,0,0,0,.88.2,1.435,1.435,0,0,0,1.106-.43,1.961,1.961,0,0,0,.485-1.14h1.495a3.62,3.62,0,0,1-.307,1.188,2.823,2.823,0,0,1-.648.9,2.736,2.736,0,0,1-.942.567,3.5,3.5,0,0,1-1.188.2,3.623,3.623,0,0,1-1.447-.28A3.052,3.052,0,0,1,10.5,48.5a3.408,3.408,0,0,1-.676-1.154,4.228,4.228,0,0,1-.239-1.427,4.4,4.4,0,0,1,.239-1.461,3.5,3.5,0,0,1,.676-1.174A3.085,3.085,0,0,1,11.59,42.5a3.51,3.51,0,0,1,1.447-.287,3.552,3.552,0,0,1,1.092.164,2.975,2.975,0,0,1,.921.485,2.509,2.509,0,0,1,.669.792,2.856,2.856,0,0,1,.334,1.078H14.559A1.2,1.2,0,0,0,14.388,44.27ZM19.3,42.4v2.689h2.839V42.4h1.543v7.01H22.135V46.386H19.3V49.41H17.753V42.4Zm5.768,1.29v-1.3H30.8v1.3H28.7V49.4H27.166V43.69ZM35.977,42.4a2.226,2.226,0,0,1,.846.15,1.927,1.927,0,0,1,.648.416,1.864,1.864,0,0,1,.41.614,1.961,1.961,0,0,1,.143.751,2.147,2.147,0,0,1-.259,1.072,1.637,1.637,0,0,1-.846.689v.02a1.18,1.18,0,0,1,.471.239,1.514,1.514,0,0,1,.307.382,1.853,1.853,0,0,1,.171.485,4.758,4.758,0,0,1,.075.532q.01.164.02.389c.007.15.02.307.034.464a2.862,2.862,0,0,0,.075.444.9.9,0,0,0,.164.355H36.694a2.854,2.854,0,0,1-.157-.792c-.02-.307-.048-.6-.089-.88a1.4,1.4,0,0,0-.334-.805,1.147,1.147,0,0,0-.833-.253H33.738V49.41H32.2V42.4Zm-.553,3.167a1.144,1.144,0,0,0,.792-.239.97.97,0,0,0,.266-.764.941.941,0,0,0-.266-.744,1.167,1.167,0,0,0-.792-.232H33.738V45.56h1.686ZM45.11,42.4v1.3h-3.7v1.5H44.8v1.194H41.41v1.72h3.781v1.3H39.875V42.4Zm6.2,1.87a1.539,1.539,0,0,0-.341-.389,1.622,1.622,0,0,0-1.01-.355,1.825,1.825,0,0,0-.88.2,1.713,1.713,0,0,0-.587.539,2.372,2.372,0,0,0-.328.771,3.862,3.862,0,0,0-.1.894,3.616,3.616,0,0,0,.1.86,2.326,2.326,0,0,0,.328.751,1.63,1.63,0,0,0,.587.532,1.768,1.768,0,0,0,.88.2,1.435,1.435,0,0,0,1.106-.43,1.962,1.962,0,0,0,.485-1.14h1.495a3.619,3.619,0,0,1-.307,1.188,2.823,2.823,0,0,1-.648.9,2.736,2.736,0,0,1-.942.567,3.5,3.5,0,0,1-1.188.2,3.623,3.623,0,0,1-1.447-.28A3.052,3.052,0,0,1,47.43,48.5a3.408,3.408,0,0,1-.676-1.154,4.227,4.227,0,0,1-.239-1.427,4.4,4.4,0,0,1,.239-1.461,3.5,3.5,0,0,1,.676-1.174,3.085,3.085,0,0,1,1.085-.785,3.51,3.51,0,0,1,1.447-.287,3.552,3.552,0,0,1,1.092.164,2.975,2.975,0,0,1,.921.485,2.509,2.509,0,0,1,.669.792,2.856,2.856,0,0,1,.334,1.078H51.485A1.2,1.2,0,0,0,51.314,44.27Zm4.908-1.87v5.713h3.413v1.3H54.679V42.4Zm8.361,0L67.2,49.41h-1.6l-.532-1.563H62.453L61.9,49.41H60.351L63,42.4Zm.089,4.293-.88-2.573h-.02l-.915,2.573Zm5.9-4.293,1.638,4.819h.02L73.777,42.4h2.171v7.01h-1.44V44.441h-.02l-1.72,4.969H71.579L69.859,44.5h-.02V49.41H68.4V42.4Zm12.559,0v1.3h-3.7v1.5h3.392v1.194H79.428v1.72H83.21v1.3H77.893V42.4Zm8.006,6.928a2.679,2.679,0,0,1-1.072.2,2.909,2.909,0,0,1-.887-.137,1.94,1.94,0,0,1-.723-.41,1.85,1.85,0,0,1-.478-.655,2.144,2.144,0,0,1-.177-.887,1.714,1.714,0,0,1,.13-.683,1.834,1.834,0,0,1,.348-.56,2.87,2.87,0,0,1,.505-.444,4.673,4.673,0,0,1,.587-.341,4.649,4.649,0,0,1-.478-.689,1.616,1.616,0,0,1-.191-.805,1.383,1.383,0,0,1,.15-.655,1.629,1.629,0,0,1,.41-.505,1.749,1.749,0,0,1,.587-.321,2.077,2.077,0,0,1,.683-.116,2.436,2.436,0,0,1,.751.109,1.782,1.782,0,0,1,.607.321,1.481,1.481,0,0,1,.41.526,1.633,1.633,0,0,1,.15.723,1.58,1.58,0,0,1-.355,1.037,3.061,3.061,0,0,1-.887.71l.9,1.106a1.514,1.514,0,0,0,.164-.41,3,3,0,0,0,.089-.43h1.208a3.507,3.507,0,0,1-.218.915,2.914,2.914,0,0,1-.464.812L94.3,49.4H92.595l-.567-.7A3.024,3.024,0,0,1,91.134,49.328Zm-1.4-2.826a1.643,1.643,0,0,0-.314.253,1.27,1.27,0,0,0-.218.321.912.912,0,0,0-.082.4.8.8,0,0,0,.082.355.943.943,0,0,0,.218.293,1.074,1.074,0,0,0,.7.273,1.235,1.235,0,0,0,.655-.171,2.63,2.63,0,0,0,.526-.444l-1.2-1.467A2.624,2.624,0,0,0,89.735,46.5Zm1.3-3.058a.619.619,0,0,0-.444-.2.635.635,0,0,0-.444.171.587.587,0,0,0-.184.444.919.919,0,0,0,.177.567c.116.157.239.321.375.478a2.785,2.785,0,0,0,.505-.4.807.807,0,0,0,.212-.6A.692.692,0,0,0,91.032,43.444Zm8.607,4.232a1.067,1.067,0,0,0,.341.4,1.447,1.447,0,0,0,.5.225,2.428,2.428,0,0,0,.587.075,3.5,3.5,0,0,0,.444-.034,1.589,1.589,0,0,0,.444-.13.96.96,0,0,0,.341-.273.7.7,0,0,0,.137-.437.622.622,0,0,0-.184-.464,1.422,1.422,0,0,0-.478-.293,4.581,4.581,0,0,0-.669-.2c-.246-.061-.5-.123-.758-.2a7.106,7.106,0,0,1-.764-.239,2.756,2.756,0,0,1-.669-.369,1.75,1.75,0,0,1-.478-.567,1.689,1.689,0,0,1-.184-.819,1.794,1.794,0,0,1,.232-.935,2.149,2.149,0,0,1,.6-.662,2.529,2.529,0,0,1,.846-.389,3.729,3.729,0,0,1,.942-.13,4.49,4.49,0,0,1,1.058.123,2.686,2.686,0,0,1,.9.4,1.989,1.989,0,0,1,.621.7,2.119,2.119,0,0,1,.232,1.037h-1.495a1.232,1.232,0,0,0-.13-.519.852.852,0,0,0-.3-.321,1.087,1.087,0,0,0-.43-.164,2.551,2.551,0,0,0-.526-.048,1.8,1.8,0,0,0-.375.041,1.153,1.153,0,0,0-.341.137.962.962,0,0,0-.253.246.64.64,0,0,0-.1.375.623.623,0,0,0,.082.334.785.785,0,0,0,.307.239,4.178,4.178,0,0,0,.635.218c.273.075.628.164,1.065.273.13.027.314.075.546.143a2.538,2.538,0,0,1,.689.328,2.076,2.076,0,0,1,.594.6,1.746,1.746,0,0,1,.253.969,2.161,2.161,0,0,1-.184.894,1.913,1.913,0,0,1-.553.71,2.683,2.683,0,0,1-.915.464,4.725,4.725,0,0,1-2.389.02,2.964,2.964,0,0,1-.962-.444,2.216,2.216,0,0,1-.662-.778A2.4,2.4,0,0,1,98,47.089H99.5A1.649,1.649,0,0,0,99.639,47.676Zm7.324-5.276v7.01H105.42V42.4Zm6.1,6.948a2.532,2.532,0,0,1-1.01.212,3.623,3.623,0,0,1-1.447-.28,3.052,3.052,0,0,1-1.085-.771,3.409,3.409,0,0,1-.676-1.154,4.48,4.48,0,0,1,0-2.887,3.5,3.5,0,0,1,.676-1.174,3.085,3.085,0,0,1,1.085-.785,3.511,3.511,0,0,1,1.447-.287,3.343,3.343,0,0,1,1.044.164,3,3,0,0,1,.915.478A2.583,2.583,0,0,1,115,44.7h-1.474a1.412,1.412,0,0,0-.532-.88,1.525,1.525,0,0,0-.949-.294,1.825,1.825,0,0,0-.88.2,1.712,1.712,0,0,0-.587.539,2.372,2.372,0,0,0-.328.771,3.863,3.863,0,0,0-.1.894,3.617,3.617,0,0,0,.1.86,2.326,2.326,0,0,0,.328.751,1.63,1.63,0,0,0,.587.532,1.768,1.768,0,0,0,.88.2,1.653,1.653,0,0,0,1.181-.389,1.692,1.692,0,0,0,.485-1.126h-1.549V45.608H115.1V49.4h-.983l-.157-.792A2.181,2.181,0,0,1,113.058,49.348ZM118.47,42.4l2.921,4.7h.02V42.4h1.447v7.01h-1.543L118.4,44.721h-.02V49.41h-1.44V42.4Z"></path></g></g></svg> 