<?xml version="1.0" encoding="UTF-8"?> <svg xmlns="http://www.w3.org/2000/svg" width="305" height="117" viewBox="0 0 305 117"><defs><style>.a{fill:none;}</style></defs><g transform="translate(-415 -589)"><rect class="a" width="305" height="117" transform="translate(415 589)"></rect><g transform="translate(-111.102 493.289)"><path d="M-100.456-27.078v-3.885h15.55v3.885H-85.2a7.944,7.944,0,0,0-.3-1.119,4.04,4.04,0,0,0-.5-.937,2.649,2.649,0,0,0-.83-.768,4.626,4.626,0,0,0-1.285-.473,8.3,8.3,0,0,0-1.863-.184h-1.242v16.821h2.348v.406h-7.612v-.406h2.348V-30.557h-1.242a8.3,8.3,0,0,0-1.863.184,4.626,4.626,0,0,0-1.285.473,2.649,2.649,0,0,0-.83.768,4.04,4.04,0,0,0-.5.937,7.944,7.944,0,0,0-.3,1.119Zm15.4,13.745v-.406h2.213V-25.516h-2.213v-.406h3.627a7.863,7.863,0,0,0,1.4-.2V-22.9h.135a9.8,9.8,0,0,1,.922-1.967,3.229,3.229,0,0,1,2.729-1.464,2.989,2.989,0,0,1,2.1.744,2.518,2.518,0,0,1,.812,1.949,1.882,1.882,0,0,1-.461,1.377,1.674,1.674,0,0,1-1.248.468,1.715,1.715,0,0,1-1.279-.461,1.541,1.541,0,0,1-.457-1.125,1.459,1.459,0,0,1,.41-.971,1.37,1.37,0,0,0,.41-.873q0-.676-.726-.676a2,2,0,0,0-1.4.608,4.486,4.486,0,0,0-1.035,1.6,12.3,12.3,0,0,0-.633,2.121,14.33,14.33,0,0,0-.283,2.3v5.532h2.975v.406Zm12.91,0v-.406h2.213V-25.516h-2.213v-.406h3.627a7.863,7.863,0,0,0,1.4-.2v12.38h2.225v.406Zm2.311-15.884a1.706,1.706,0,0,1-.48-1.242,1.665,1.665,0,0,1,.48-1.23,1.68,1.68,0,0,1,1.242-.48,1.659,1.659,0,0,1,1.236.48,1.676,1.676,0,0,1,.473,1.23,1.68,1.68,0,0,1-.48,1.242,1.665,1.665,0,0,1-1.23.48,1.68,1.68,0,0,1-1.243-.48Zm5.545,20.372h1.967V-25.516h-1.967v-.406h3.369a7.867,7.867,0,0,0,1.414-.2v1.3h.123a3.422,3.422,0,0,1,3.074-1.512,5.416,5.416,0,0,1,2.053.393A5.408,5.408,0,0,1-52.5-24.772a5.347,5.347,0,0,1,1.248,2.035,8.335,8.335,0,0,1,.461,2.865,7.752,7.752,0,0,1-1.555,5.01,4.915,4.915,0,0,1-4.013,1.936,4.656,4.656,0,0,1-1.186-.135,2.459,2.459,0,0,1-.854-.393,3.162,3.162,0,0,1-.559-.522,4.584,4.584,0,0,1-.424-.633H-59.5v5.766h1.967v.393h-6.75ZM-59.7-19.725a15.922,15.922,0,0,0,.357,3.731,4.2,4.2,0,0,0,1,2.049,2.268,2.268,0,0,0,1.628.612,2.24,2.24,0,0,0,2.167-1.512,13.837,13.837,0,0,0,.664-5.09q0-1.156-.067-2.016a10.82,10.82,0,0,0-.252-1.64,4.141,4.141,0,0,0-.5-1.272,2.294,2.294,0,0,0-.812-.776,2.338,2.338,0,0,0-1.177-.283A2.382,2.382,0,0,0-59-24.385a11.781,11.781,0,0,0-.7,4.659Zm10.487-5.791v-.406a3.7,3.7,0,0,0,3.006-1.365,4.977,4.977,0,0,0,1.125-3.27h.5v4.635h3.821v.406h-3.8v10.143a2.48,2.48,0,0,0,.4,1.5,1.258,1.258,0,0,0,1.061.541,2.189,2.189,0,0,0,1.414-.473,2.694,2.694,0,0,0,.848-1.137l.332.148a3.185,3.185,0,0,1-3.233,1.869,3.785,3.785,0,0,1-2.619-.922,3.134,3.134,0,0,1-1.033-2.459v-9.208Zm8.632,15.356a1.371,1.371,0,0,1,.393-1.033,1.312,1.312,0,0,1,.944-.382,1.251,1.251,0,0,1,.977.387,1.368,1.368,0,0,1,.351.953.925.925,0,0,1-.153.541.875.875,0,0,1-.338.307,1.249,1.249,0,0,0-.338.234.45.45,0,0,0-.153.332q0,.357.48.566a2.918,2.918,0,0,0,1.168.209q2.508,0,4.648-3.824l-6.137-13.646H-40.4v-.406h6.27v.406h-1.586l4.6,10.34a60.176,60.176,0,0,0,2.694-10.34h-1.71v-.406H-26.2v.406h-1.722q-.48,2.545-1.021,4.752t-1.211,4.254a28.261,28.261,0,0,1-1.45,3.639,17.905,17.905,0,0,1-1.659,2.778,6.844,6.844,0,0,1-1.925,1.82,4.141,4.141,0,0,1-2.174.633,3.527,3.527,0,0,1-2.234-.774,2.21,2.21,0,0,1-.987-1.747Zm15.06-9.369a9.172,9.172,0,0,1,.3-2.4,6.558,6.558,0,0,1,.824-1.905A6.023,6.023,0,0,1-23.171-25.2a4.882,4.882,0,0,1,1.5-.85,5.056,5.056,0,0,1,1.654-.276,3.422,3.422,0,0,1,3.074,1.512h.133l.148-1.107h4.635v.406h-1.966V-8.845h1.967v.393h-6.75v-.393h1.966v-5.767h-.135a3.188,3.188,0,0,1-3.011,1.685,5.071,5.071,0,0,1-4.027-1.783,7.112,7.112,0,0,1-1.543-4.819Zm3.1-.049a18.424,18.424,0,0,0,.3,3.768,3.679,3.679,0,0,0,.9,1.925,2.284,2.284,0,0,0,1.617.553,2.455,2.455,0,0,0,2.176-1.537,10.787,10.787,0,0,0,.824-4.856,11.7,11.7,0,0,0-.707-4.66,2.394,2.394,0,0,0-2.318-1.536,2.126,2.126,0,0,0-1.174.32,2.413,2.413,0,0,0-.805.867,5.066,5.066,0,0,0-.492,1.377,12.17,12.17,0,0,0-.252,1.727q-.069.9-.069,2.053Zm10.866-5.938v-.406h5.028v8.483a5.827,5.827,0,0,0,.658,3.031A2.013,2.013,0,0,0-4.08-13.332a3.127,3.127,0,0,0,2.158-.947A5.266,5.266,0,0,0-.478-16.6v-8.913H-2.445v-.406H.936a7.863,7.863,0,0,0,1.4-.2v12.38H4.563v.406H-.478V-15.3H-.6q-.344.468-.553.726a6.623,6.623,0,0,1-.6.627,3.032,3.032,0,0,1-.792.556,5.307,5.307,0,0,1-1.008.326,6.015,6.015,0,0,1-1.361.139A6.19,6.19,0,0,1-6.6-13.142,4.3,4.3,0,0,1-8-13.824a3.057,3.057,0,0,1-.99-1.323,5.27,5.27,0,0,1-.357-2.035v-8.334Zm17.3,5.864a8.787,8.787,0,0,1,.209-1.912,7.124,7.124,0,0,1,.67-1.807,6.089,6.089,0,0,1,1.131-1.518A5.016,5.016,0,0,1,9.4-25.934a5.728,5.728,0,0,1,2.158-.393,5.169,5.169,0,0,1,4.051,1.7,6.642,6.642,0,0,1,1.518,4.6H8.841v.234a11.484,11.484,0,0,0,.781,4.985,2.761,2.761,0,0,0,2.661,1.479,4.509,4.509,0,0,0,2.545-.731,5.628,5.628,0,0,0,1.746-1.787l.344.184a7.74,7.74,0,0,1-.8,1.039,6.184,6.184,0,0,1-1.008.852,4.45,4.45,0,0,1-1.426.633,7.3,7.3,0,0,1-1.844.215,6.312,6.312,0,0,1-2.225-.381A5.182,5.182,0,0,1,7.9-14.335,6.241,6.241,0,0,1,6.7-15.841a6.963,6.963,0,0,1-.726-1.825,8.409,8.409,0,0,1-.234-1.986Zm3.1-.787h5.483a16.722,16.722,0,0,0-.3-3.4,2.911,2.911,0,0,0-.83-1.635,2.418,2.418,0,0,0-1.562-.449,2.469,2.469,0,0,0-1.586.455,3.015,3.015,0,0,0-.867,1.647A15.667,15.667,0,0,0,8.841-20.439Z" transform="translate(720.456 167)"></path><path d="M4.711-3.341,3.228-5.35A1.288,1.288,0,0,0,4.2-6.638a1.347,1.347,0,0,0-.444-1,1.347,1.347,0,0,0-1.039-.341H1.092v4.638H1.64V-5.287h.991l1.44,1.946ZM1.64-7.486H2.7a.838.838,0,0,1,.665.214.838.838,0,0,1,.272.643.826.826,0,0,1-.27.643.826.826,0,0,1-.667.207H1.64ZM8.273-3.341H11.33v-.492H8.821V-5.575h1.855v-.492H8.821V-7.486h2.424v-.492H8.273Zm6.436-.92a1.958,1.958,0,0,0,1.707,1,1.351,1.351,0,0,0,1.029-.32,1.351,1.351,0,0,0,.468-.971c0-.6-.351-.937-1.082-1.293l-.511-.244a1.477,1.477,0,0,1-.656-.445.577.577,0,0,1-.091-.337c0-.429.365-.675.82-.675a1.275,1.275,0,0,1,1.061.586l.4-.3A1.72,1.72,0,0,0,16.4-8.055a1.288,1.288,0,0,0-.955.309,1.288,1.288,0,0,0-.444.9c0,.618.41.942,1.047,1.244l.52.246c.52.253.773.393.773.815,0,.468-.379.773-.937.773a1.522,1.522,0,0,1-1.293-.794Zm8.207.92h.548V-7.486H25.1v-.492H21.287v.492h1.63Zm8.46,0h.586L29.951-8.055h-.2L27.739-3.341h.576l.393-.942h2.274Zm-.6-1.433H28.918l.928-2.284Zm4.617-.41A1.761,1.761,0,0,0,35.874-3.8a1.761,1.761,0,0,0,1.364.537,1.761,1.761,0,0,0,1.353-.542,1.761,1.761,0,0,0,.481-1.376v-2.8h-.548v2.832a1.23,1.23,0,0,1-.323.989,1.23,1.23,0,0,1-.966.388,1.237,1.237,0,0,1-.969-.387,1.237,1.237,0,0,1-.328-.991V-7.978h-.548ZM46.723-3.341,45.241-5.35a1.288,1.288,0,0,0,.977-1.288,1.347,1.347,0,0,0-.444-1,1.347,1.347,0,0,0-1.039-.341H43.1v4.638h.548V-5.287h.991l1.44,1.946ZM43.653-7.486h1.061a.838.838,0,0,1,.665.214.838.838,0,0,1,.272.643.826.826,0,0,1-.27.643.826.826,0,0,1-.667.207H43.653ZM53.5-3.341h.586L52.078-8.055h-.2l-2.01,4.715h.576l.393-.942H53.11Zm-.6-1.433H51.045l.928-2.284Zm8-3.2v3.485L57.954-8.055h-.2v4.715h.55V-6.819l2.951,3.555h.2V-7.978Zm5.762,4.638h.548V-7.486h1.64v-.492H65.037v.492h1.63Z" transform="translate(643.501 178.088)"></path></g></g></svg> 