<?xml version="1.0" encoding="UTF-8"?> <svg xmlns="http://www.w3.org/2000/svg" width="305" height="117" viewBox="0 0 305 117"><defs><style>.a{fill:none;}</style></defs><g transform="translate(-110 -472)"><rect class="a" width="305" height="117" transform="translate(110 472)"></rect><g transform="translate(198 511)"><path d="M16.116,31.089a1.658,1.658,0,0,1-.573.941,1.629,1.629,0,0,1-2.063,0,1.658,1.658,0,0,1-.573-.941l-.365-9.541h3.938Zm-.848-14.546a35.315,35.315,0,0,1,3.737.221l.529,2.76c-1.641-.138-3.318-.212-5.023-.212s-3.373.074-5.013.212l.52-2.76q1.823-.193,3.747-.221a7.74,7.74,0,0,0-2.7-2.3A7.662,7.662,0,0,0,7.63,13.4a7.492,7.492,0,0,0-5.357,2.157A7.634,7.634,0,0,0,0,20.9c0,6.983,7.292,12.633,14.512,18.218,7.21-5.585,14.521-11.234,14.521-18.218A7.727,7.727,0,0,0,28,17.2a7.639,7.639,0,0,0-2.684-2.731,7.54,7.54,0,0,0-7.376-.218C22.123,6.671,10.31,5.2,12.47,0a5.479,5.479,0,0,0-1.791,1.461A5.562,5.562,0,0,0,10.4,8.014,3.643,3.643,0,0,1,9.118,7.18a3.684,3.684,0,0,1-.832-1.291c-1.495,4.941,3.227,4.4,3.646,7.3,1.823-.994.4-3.349.4-3.349,2.862,1.242,4.767,3.68,2.88,6.707"></path><path d="M55.664,31.006v.478H57.7V24.124H55.664v.506a3.776,3.776,0,0,0-2.2-.662,3.429,3.429,0,0,0-2.6,1.076,4.048,4.048,0,0,0,0,5.52,3.458,3.458,0,0,0,2.6,1.123,3.849,3.849,0,0,0,2.2-.663m0-1.978a2.194,2.194,0,0,1-.8.687,2.172,2.172,0,0,1-1.024.233,1.888,1.888,0,0,1-1.44-.626,2.326,2.326,0,0,1,0-3.036,1.816,1.816,0,0,1,1.44-.644,2.152,2.152,0,0,1,1.025.231,2.175,2.175,0,0,1,.8.69Z" transform="translate(-4.49 -2.161)"></path><path d="M62.387,27.03a3.63,3.63,0,0,1,2.625-1.122V23.957a3.7,3.7,0,0,0-2.625,1.086v-.92H60.355v7.361h2.033Z" transform="translate(-5.443 -2.161)"></path><path d="M66.675,21.5v6.836a2.9,2.9,0,0,0,.748,2.267,2.84,2.84,0,0,0,2.187.916,6.735,6.735,0,0,0,1.942-.322l-.264-1.776a4.673,4.673,0,0,1-1.212.184c-.912,0-1.386-.442-1.386-1.316V25.53h2.324V23.9H68.69V21.5Z" transform="translate(-6.012 -1.939)"></path><path d="M72.969,29.028a2.6,2.6,0,0,0,.29,1.147,2.569,2.569,0,0,0,.768.9,4.1,4.1,0,0,0,2.4.662c2.042,0,3.309-.92,3.309-2.484,0-1.2-.738-1.923-2.206-2.162l-1.358-.212c-.784-.129-.912-.5-.912-.782,0-.432.456-.708,1.176-.708s1.358.322,1.431.92h1.823a2.389,2.389,0,0,0-.366-1.144,2.36,2.36,0,0,0-.874-.816,4.451,4.451,0,0,0-2.051-.478c-1.923,0-3.172.92-3.172,2.429,0,1.159.766,1.932,2.151,2.171l1.6.267c.665.11.8.442.8.7,0,.432-.52.718-1.331.718a1.486,1.486,0,0,1-1.623-1.123Z" transform="translate(-6.581 -2.152)"></path><path d="M81.834,21.5v6.836a2.9,2.9,0,0,0,.748,2.267,2.84,2.84,0,0,0,2.187.916,6.679,6.679,0,0,0,1.942-.322l-.264-1.748a4.618,4.618,0,0,1-1.212.184c-.912,0-1.376-.442-1.376-1.316v-2.76h2.315V23.9H83.858V21.5Z" transform="translate(-7.379 -1.939)"></path><path d="M90.821,24.089H88.779v7.425h2.042Z" transform="translate(-8.007 -2.173)"></path><path d="M89.785,19.74a1.2,1.2,0,0,0-.655.22,1.213,1.213,0,0,0-.427.548,1.223,1.223,0,0,0,.272,1.307,1.2,1.2,0,0,0,1.837-.171,1.205,1.205,0,0,0-.145-1.538,1.2,1.2,0,0,0-.872-.349" transform="translate(-7.993 -1.78)"></path><path d="M121.459,24.089h-2.042v7.425h2.042Z" transform="translate(-10.77 -2.173)"></path><path d="M120.422,19.74a1.2,1.2,0,0,0-.658.216,1.209,1.209,0,0,0-.431.546,1.224,1.224,0,0,0,.266,1.311,1.2,1.2,0,0,0,1.84-.167,1.2,1.2,0,0,0,.126-1.14,1.207,1.207,0,0,0-.267-.4,1.194,1.194,0,0,0-.4-.263,1.18,1.18,0,0,0-.472-.083" transform="translate(-10.755 -1.78)"></path><path d="M96.483,23.917a3.855,3.855,0,0,0-2.817,1.123,3.7,3.7,0,0,0-1.13,2.76,3.809,3.809,0,0,0,1.13,2.76,3.927,3.927,0,0,0,2.817,1.095,3.832,3.832,0,0,0,2.507-.846,3.311,3.311,0,0,0,1.185-2.153H98.133a1.6,1.6,0,0,1-.615.888,1.576,1.576,0,0,1-1.035.289,1.9,1.9,0,0,1-1.411-.588,1.934,1.934,0,0,1-.53-1.445,1.971,1.971,0,0,1,.525-1.464,1.933,1.933,0,0,1,1.417-.616,1.584,1.584,0,0,1,1.04.3,1.61,1.61,0,0,1,.61.9h2.042a3.238,3.238,0,0,0-1.185-2.135A3.806,3.806,0,0,0,96.483,23.917Z" transform="translate(-8.346 -2.157)"></path><path d="M104.618,26.342a2.268,2.268,0,0,1,.744-.7,2.241,2.241,0,0,1,.97-.3c1.066,0,1.677.7,1.677,1.914v3.874h2.043V27.078a3.7,3.7,0,0,0-.912-2.613,2.968,2.968,0,0,0-2.325-.92,3.291,3.291,0,0,0-2.215.846v-4.3h-2.014V31.135h2.033Z" transform="translate(-9.252 -1.812)"></path><path d="M125.777,26.683a2.255,2.255,0,0,1,1.713-.994c1.066,0,1.678.7,1.678,1.914v3.874h2.042V27.419a3.7,3.7,0,0,0-.912-2.613,2.965,2.965,0,0,0-2.325-.92,3.29,3.29,0,0,0-2.214.846v-.616h-2.033v7.361h2.033Z" transform="translate(-11.159 -2.154)"></path><path d="M112.473,21.5v6.836a2.9,2.9,0,0,0,.752,2.264,2.85,2.85,0,0,0,2.184.919,6.632,6.632,0,0,0,1.942-.322l-.255-1.748a4.679,4.679,0,0,1-1.213.184c-.912,0-1.386-.442-1.386-1.316v-2.76h2.325V23.9H114.5V21.5Z" transform="translate(-10.143 -1.939)"></path><path d="M139.194,30.551v.92a1.742,1.742,0,0,1-.479,1.368,1.717,1.717,0,0,1-.616.408,1.7,1.7,0,0,1-.728.11,1.62,1.62,0,0,1-1.168-.288,1.649,1.649,0,0,1-.655-1.018h-2.06a3.173,3.173,0,0,0,1.194,2.227,4.042,4.042,0,0,0,2.68.92,3.809,3.809,0,0,0,2.735-1.012,3.511,3.511,0,0,0,1.121-2.714V24.11h-2.023v.359a3.85,3.85,0,0,0-2.2-.653,3.527,3.527,0,0,0-2.607,1.067,3.7,3.7,0,0,0-1.067,2.76,3.492,3.492,0,0,0,1.076,2.539,3.554,3.554,0,0,0,2.588,1.012,3.768,3.768,0,0,0,2.2-.662m0-2.015a2.128,2.128,0,0,1-.787.722,2.1,2.1,0,0,1-1.036.244,1.9,1.9,0,0,1-1.422-.589,1.92,1.92,0,0,1-.583-1.325,1.978,1.978,0,0,1,.55-1.485,1.941,1.941,0,0,1,1.456-.595,2.116,2.116,0,0,1,1.027.226,2.142,2.142,0,0,1,.8.694Z" transform="translate(-12.024 -2.148)"></path><path d="M45.368,31.28H47.5V21.5H45.368v3.892h-4.12V21.5H39.114v9.78h2.133V27.343h4.12Z" transform="translate(-3.528 -1.939)"></path></g></g></svg> 