<?xml version="1.0" encoding="UTF-8"?> <svg xmlns="http://www.w3.org/2000/svg" xmlns:xlink="http://www.w3.org/1999/xlink" width="305" height="117" viewBox="0 0 305 117"><defs><style>.a{fill:none;}.b{clip-path:url(#a);}</style><clipPath id="a"><rect width="153" height="39"></rect></clipPath></defs><g transform="translate(-415 -706)"><rect class="a" width="305" height="117" transform="translate(415 706)"></rect><g class="b" transform="translate(490.898 745.113)"><path d="M6.242,1.868v10.3h9.97V1.868h6.044v26.8H16.213V17.462H6.242V28.67H.17V1.868Z"></path><path d="M36.858,16.755c0-1.472-.621-3.934-3.418-3.934-2.542,0-3.559,2.321-3.728,3.934ZM29.74,20.887c.2,2.519,2.655,3.708,5.479,3.708a17.4,17.4,0,0,0,5.366-.792l.791,4.1a19.174,19.174,0,0,1-7.033,1.189c-6.581,0-10.366-3.821-10.366-9.906,0-4.925,3.05-10.387,9.8-10.387,6.27,0,8.643,4.9,8.643,9.708a13.457,13.457,0,0,1-.2,2.377Z"></path><path d="M45.813,28.67v-15H43.271V9.226h2.542V8.462a8.814,8.814,0,0,1,2.457-6.509A7.8,7.8,0,0,1,53.637,0a12.139,12.139,0,0,1,3.22.4l-.226,4.642a6.177,6.177,0,0,0-1.949-.283c-1.977,0-2.824,1.557-2.824,3.453V9.2h3.9v4.443H51.914v15h-6.1Z"></path><path d="M59.991,28.67v-15H57.449V9.226h2.542V8.462a8.814,8.814,0,0,1,2.457-6.509A7.8,7.8,0,0,1,67.815,0a12.139,12.139,0,0,1,3.22.4l-.226,4.642a6.177,6.177,0,0,0-1.949-.283c-1.977,0-2.825,1.557-2.825,3.453V9.2h3.9v4.443H66.092v15h-6.1Z"></path><path d="M94.138,17.377a3.952,3.952,0,0,0-.113-.99,3.554,3.554,0,0,0-3.446-2.915c-2.768,0-4.18,2.349-4.18,5.49,0,3.255,1.553,5.377,4.1,5.377A3.606,3.606,0,0,0,94,21.594a5.148,5.148,0,0,0,.17-1.3V17.377Zm0,8.887h-.085a6.538,6.538,0,0,1-5.762,2.858c-4.209,0-8.05-3.707-8.05-9.906,0-6.962,4.434-10.415,8.586-10.415,2.514,0,4.321.906,5.395,2.717h.085l.17-2.264h5.847c-.028,1.868-.113,3.821-.113,5.859V37.358H94.167V26.264Z"></path><path d="M78.521,9.227H72.477V28.67h6.044Z"></path><path d="M78.521,0H72.477V5.321h6.044Z"></path><path d="M-3960.463-15169.51H-3993V-15202h32.536v32.489Zm-31.689-31.7v30.876h30.873v-30.876Z" transform="translate(4113.463 15206.868)"></path><path d="M123.512,7.868H133.99v9.623H123.512v-9"></path><path d="M-3982.522-15192.348H-3993v-9.626h3.247v4.247h-3.22l5.284,5.349,5.166-5.317v5.347Zm0-5.379h-3.247v-4.247h3.247v4.246Z" transform="translate(4132.471 15209.84)"></path><path d="M139.471,24.708h10.507v9.623H139.471Z"></path><path d="M-3989.836-15192.377H-3993v-4.272h0v0h0V-15202h5.2l-5.195,5.348h3.162v4.273Zm7.314,0h-3.105v-4.273h3.1l-5.277-5.347,5.279,0v9.621Z" transform="translate(4116.512 15226.708)"></path><path d="M127.581,23.32h-1.074l.283-1.642h-2.034l-.282,1.642H123.4l.763-4.274h1.073l-.31,1.642h2.061l.283-1.642h1.073Z"></path><path d="M138.227,23.32l.565-3.255h-1.384l.2-1.019h3.813l-.2,1.019h-1.356l-.593,3.255Z"></path><path d="M131.731,20.094l.2-1.047H133l-.226,1.274-.085.34-.085.311-.141.226-.141.17-.2.142-.2.113-.283.057h-.621l-.283,1.642h-1.073l.282-1.642h-.621l-.2-.028-.169-.057-.141-.113-.085-.113-.085-.141-.028-.17-.028-.2.028-.255.028-.283.226-1.274h1.073l-.2,1.047v.142l-.029.085v.17l.029.057.028.028.028.057h.057l.084.028h.085l.113.028h1.073l.142-.028.113-.028.084-.057.057-.057.056-.113.029-.141Z"></path><path d="M145.374,20.066h-2.429l-.113.028-.085.057-.057.085-.056.113-.028.113-.057.2v.057h2.4l-.17.934h-2.4v.113l-.029.141-.028.113V22.1l.028.057.029.057.056.057.085.028h2.457l-.169,1.019h-2.627l-.226-.028-.2-.028-.169-.057-.141-.085-.113-.113-.085-.142-.028-.17-.029-.226.029-.226.028-.283.282-1.557.085-.34.085-.283.113-.255.169-.17.17-.142.226-.085.254-.057.311-.028h2.6Z"></path><path d="M135.516,22.3H132.8l-.169,1.019h2.429l.536-.057.424-.057.311-.113.254-.2.169-.226.113-.34.085-.4.028-.311v-.255l-.028-.2-.085-.17-.113-.113-.113-.085-.169-.057-.2-.057h-1.525l-.141-.028h-.2l-.056-.028L134.3,20.6l-.028-.057v-.17l.028-.085.028-.057.029-.057.056-.057.057-.028.084-.028h2.4l.17-1.019h-1.384l-.65.028-.537.028-.423.057-.311.113-.254.17-.17.255-.113.311-.084.425-.029.283v.255l.029.2.084.17.113.113.142.113.141.057.2.028.2.028H135.4l.141.028h.2l.056.028.057.028v.057l.028.028v.141l-.028.085-.029.057-.056.057-.028.057-.085.028-.057.028Z"></path><path d="M-3991.927-15197.726H-3993l.733-4.273h3.105l.172.026.168.058.115.03.115.084.084.084.053.114.057.142.031.142v.167l-.031.229-.027.2-.084.34-.084.282-.088.2-.141.142-.111.083-.141.084-.172.058-.168.058.141.03.141.026.084.027.084.057.088.058.027.084.027.088.031.141v.168l-.031.2-.168.877h-1.076l.088-.6.027-.168.031-.141v-.2l-.031-.058-.027-.058-.057-.026-.084-.03h-.088l-.111-.026h-1.385l-.225,1.3Zm.565-3.256h0l-.168.992h1.637l.115-.03.084-.058.057-.054.027-.083.057-.115.027-.141v-.142l.031-.088-.031-.084v-.057l-.027-.058-.057-.026-.084-.026-.084-.031h-1.583Z" transform="translate(4138.459 15221.047)"></path><path d="M.169,36.623a1.926,1.926,0,0,0,.96.283c.537,0,.763-.255.763-.594s-.2-.538-.734-.736C.452,35.321.113,34.925.113,34.444c0-.651.508-1.16,1.384-1.16a1.954,1.954,0,0,1,.989.255l-.169.538a1.777,1.777,0,0,0-.819-.226c-.424,0-.678.255-.678.538,0,.34.226.481.763.679.706.255,1.045.623,1.045,1.217,0,.708-.537,1.189-1.5,1.189A2.3,2.3,0,0,1,0,37.189Z"></path><path d="M5.281,31.5H4.547v5.859h.734Z"></path><path d="M7.484,33.368h.734v3.991H7.484ZM8.3,32.236a.43.43,0,0,1-.452.453.424.424,0,0,1-.424-.453.447.447,0,0,1,.452-.453A.424.424,0,0,1,8.3,32.236Z"></path><path d="M10.423,34.444c0-.424,0-.764-.028-1.076h.621l.028.651h.028a1.4,1.4,0,0,1,1.243-.736,1.2,1.2,0,0,1,1.13.792h.028a1.335,1.335,0,0,1,.452-.509,1.409,1.409,0,0,1,.876-.283c.537,0,1.3.34,1.3,1.726v2.349h-.706V35.095c0-.764-.282-1.245-.876-1.245a.915.915,0,0,0-.847.651,1.256,1.256,0,0,0-.057.368V37.33h-.706V34.925c0-.623-.283-1.1-.819-1.1a1,1,0,0,0-.9.736,1.434,1.434,0,0,0-.057.368V37.33h-.706Z"></path><path d="M21.042,33.368h.706v3.991h-.734V33.368Zm.791-1.132a.43.43,0,0,1-.452.453.424.424,0,0,1-.424-.453.447.447,0,0,1,.452-.453A.424.424,0,0,1,21.833,32.236Z"></path><path d="M23.952,34.444c0-.425,0-.764-.028-1.076h.65l.028.651h.028a1.49,1.49,0,0,1,1.327-.764c.565,0,1.412.34,1.412,1.7V37.33h-.734V35.038c0-.651-.226-1.189-.932-1.189a1.007,1.007,0,0,0-.96.736,1.22,1.22,0,0,0-.057.34V37.33h-.734Z"></path><path d="M30.391,32.208v1.16h1.045v.566H30.391v2.151c0,.509.141.764.537.764a1.374,1.374,0,0,0,.424-.057l.028.538a1.889,1.889,0,0,1-.65.085,1.018,1.018,0,0,1-.791-.311,1.547,1.547,0,0,1-.282-1.047V33.878h-.621v-.566h.621v-.962Z"></path><path d="M35.7,34.981a1.057,1.057,0,0,0-1.017-1.189,1.2,1.2,0,0,0-1.1,1.189Zm-2.118.509a1.28,1.28,0,0,0,1.356,1.387,2.736,2.736,0,0,0,1.1-.2l.113.509a3.293,3.293,0,0,1-1.327.255,1.856,1.856,0,0,1-1.949-2.009,1.927,1.927,0,0,1,1.864-2.151,1.7,1.7,0,0,1,1.638,1.9c0,.141-.028.255-.028.34H33.583Z"></path><path d="M38.3,34.613c0-.481,0-.877-.028-1.245h.621l.028.792h.028a1.189,1.189,0,0,1,1.1-.877.418.418,0,0,1,.2.028v.679a.7.7,0,0,0-.254-.028,1,1,0,0,0-.96.934,1.378,1.378,0,0,0-.028.34v2.123H38.3Z"></path><path d="M42.028,34.444c0-.425,0-.764-.028-1.076h.65l.028.651h.028a1.49,1.49,0,0,1,1.327-.764c.565,0,1.412.34,1.412,1.7V37.33h-.734V35.038c0-.651-.226-1.189-.932-1.189a1.007,1.007,0,0,0-.96.736,1.216,1.216,0,0,0-.056.34V37.33h-.734Z"></path><path d="M51.235,32.208v1.16H52.28v.566H51.235v2.151c0,.509.141.764.537.764a1.373,1.373,0,0,0,.424-.057l.028.538a1.89,1.89,0,0,1-.65.085,1.018,1.018,0,0,1-.791-.311,1.547,1.547,0,0,1-.282-1.047V33.878h-.621v-.566H50.5v-.962Z"></path><path d="M54.089,34.613c0-.481,0-.877-.028-1.245h.621l.028.792h.028a1.189,1.189,0,0,1,1.1-.877.418.418,0,0,1,.2.028v.679a.7.7,0,0,0-.254-.028,1,1,0,0,0-.96.934,1.378,1.378,0,0,0-.028.34v2.123h-.706Z"></path><path d="M59.85,35.321c-.791-.028-1.695.113-1.695.906a.623.623,0,0,0,.678.679,1,1,0,0,0,.96-.679A.706.706,0,0,0,59.822,36v-.679Zm.085,2.038-.056-.509a1.491,1.491,0,0,1-1.215.594,1.127,1.127,0,0,1-1.215-1.16c0-.962.847-1.5,2.4-1.5V34.7a.822.822,0,0,0-.9-.934,1.892,1.892,0,0,0-1.045.311l-.169-.481a2.415,2.415,0,0,1,1.3-.368c1.215,0,1.525.821,1.525,1.641v1.5c0,.34.028.679.056.962h-.678Z"></path><path d="M62.7,34.444c0-.425,0-.764-.028-1.076h.65l.028.651h.028a1.49,1.49,0,0,1,1.327-.764c.565,0,1.412.34,1.412,1.7V37.33h-.734V35.038c0-.651-.226-1.189-.932-1.189a1.007,1.007,0,0,0-.96.736,1.22,1.22,0,0,0-.056.34V37.33H62.7Z"></path><path d="M68.181,36.623a1.925,1.925,0,0,0,.96.283c.537,0,.763-.255.763-.594s-.2-.538-.734-.736c-.706-.255-1.045-.651-1.045-1.132,0-.651.508-1.16,1.384-1.16a1.954,1.954,0,0,1,.989.255l-.169.538a1.777,1.777,0,0,0-.819-.226c-.424,0-.678.255-.678.538,0,.34.226.481.763.679.706.255,1.045.623,1.045,1.217,0,.708-.537,1.189-1.5,1.189a2.3,2.3,0,0,1-1.13-.283Z"></path><path d="M73.266,35.717c0,.113.028.2.028.283a1.121,1.121,0,0,0,1.1.849c.763,0,1.215-.623,1.215-1.557,0-.792-.424-1.5-1.186-1.5a1.166,1.166,0,0,0-1.1.906,1.021,1.021,0,0,0-.056.311ZM72.56,34.67c0-.509-.028-.934-.028-1.3h.65l.028.679h.028a1.579,1.579,0,0,1,1.412-.764,1.819,1.819,0,0,1,1.695,2.038,1.891,1.891,0,0,1-1.808,2.151,1.346,1.346,0,0,1-1.215-.623h-.028v2.179h-.706V34.67Z"></path><path d="M78.689,35.377c0,.877.508,1.528,1.215,1.528s1.215-.651,1.215-1.557c0-.679-.339-1.528-1.186-1.528C79.057,33.821,78.689,34.613,78.689,35.377Zm3.163-.057a1.951,1.951,0,0,1-1.977,2.123,1.911,1.911,0,0,1-1.921-2.066,1.955,1.955,0,0,1,1.977-2.123A1.911,1.911,0,0,1,81.853,35.321Z"></path><path d="M83.772,34.613c0-.481,0-.877-.028-1.245h.621l.028.792h.028a1.189,1.189,0,0,1,1.1-.877.418.418,0,0,1,.2.028v.679a.7.7,0,0,0-.254-.028,1,1,0,0,0-.96.934,1.383,1.383,0,0,0-.028.34v2.123h-.706Z"></path><path d="M88.518,32.208v1.16h1.045v.566H88.518v2.151c0,.509.141.764.537.764a1.374,1.374,0,0,0,.424-.057l.028.538a1.89,1.89,0,0,1-.65.085,1.018,1.018,0,0,1-.791-.311,1.547,1.547,0,0,1-.282-1.047V33.878h-.621v-.566h.621v-.962Z"></path></g></g></svg> 