<?xml version="1.0" encoding="UTF-8"?> <svg xmlns="http://www.w3.org/2000/svg" width="305" height="117" viewBox="0 0 305 117"><defs><style>.a{fill:none;}</style></defs><g transform="translate(-1025 -589)"><rect class="a" width="305" height="117" transform="translate(1025 589)"></rect><g transform="translate(1037.39 447.162)"><g transform="translate(75.348 181.958)"><path d="M75.348,212.11l.048-24.285,2.572,0,0,2.286a4.252,4.252,0,0,1-.146,1.111,7.521,7.521,0,0,1,6.435-3.387,6.229,6.229,0,0,1,6.275,6.587l-.01,4.57c-.01,4.943-2.871,6.567-6.3,6.56a5.382,5.382,0,0,1-4.851-2.867l1.717-1.14a3.437,3.437,0,0,0,3.139,2.005c2.229,0,3.571-1.363,3.579-4.564l.01-4.573c.007-2.8-1.734-4.432-4.132-4.436a6.329,6.329,0,0,0-5.581,3.162l-.037,18.973Z" transform="translate(-75.348 -174.426)"></path><path d="M89.835,198.863c-2.058,0-3.148,1.165-3.15,2.563,0,1.631,1.624,2.291,3.139,2.294a6.158,6.158,0,0,0,3-.852l.854,1.574a8.174,8.174,0,0,1-4.429,1.277c-3.287-.007-5.14-2.152-5.137-4.3.007-2.4,1.9-4.569,5.439-4.562a7.508,7.508,0,0,1,6.707,4.444l.016-7.857c0-2.227-1.825-3.571-4.708-3.582s-4.717,1.336-4.721,3.563l-2.716-.007c.007-3.254,3.184-5.706,7.442-5.7s7.424,2.471,7.42,5.727l-.018,9.147c0,1.825-.265,2.857-2.294,2.851h-.857c0-2.716-2.387-6.577-5.987-6.587" transform="translate(-64.091 -174.556)"></path><path d="M108.054,185l-.041,21.428c0,.714.14,1,.714,1a1.4,1.4,0,0,0,.856-.286l.569,1.429a3.894,3.894,0,0,1-2.286.714c-1.746,0-2.57-1.09-2.567-2.863l.021-9.543a6.327,6.327,0,0,0-5.566-3.182c-2.4,0-4.146,1.62-4.151,4.42l-.01,4.573c-.007,3.2,1.332,4.573,3.561,4.578a3.442,3.442,0,0,0,3.148-1.994l1.711,1.147a5.378,5.378,0,0,1-4.863,2.848c-3.428-.007-6.284-1.643-6.27-6.587l.01-4.57a6.227,6.227,0,0,1,6.3-6.56,7.515,7.515,0,0,1,6.421,3.413,4.181,4.181,0,0,1-.14-1.111l.018-8.856Z" transform="translate(-52.844 -178.062)"></path><path d="M107.855,186.008l2.713.007-.007,4.286,4.57.01,0,2.143-4.57-.009-.023,11.572c0,1.2.31,1.859,1.567,1.862a4.909,4.909,0,0,0,3-1.137l.852,1.716a7.017,7.017,0,0,1-4.29,1.565c-2.17,0-3.854-1.037-3.849-4.009l.023-11.572-2.428,0,0-2.143,2.428,0Z" transform="translate(-36.737 -176.757)"></path><path d="M126.032,209.334c-1.746,0-2.57-1.092-2.565-2.863l.018-9.144c0-2.515-1.423-3.571-3.28-3.579a6.129,6.129,0,0,0-5.434,3.1l-.025,12.173-2.716,0,.05-24,2.57,0-.018,8.858a5.121,5.121,0,0,1-.114,1.032,7.163,7.163,0,0,1,6.263-3.3c2.314,0,5.428,1.27,5.418,5.727l-.018,9.144c0,.714.14,1,.714,1a1.432,1.432,0,0,0,.856-.283l.569,1.429a3.912,3.912,0,0,1-2.286.714" transform="translate(-28.24 -178.027)"></path><path d="M126.261,198.935c-2.058,0-3.148,1.167-3.15,2.565,0,1.631,1.624,2.291,3.139,2.294a6.176,6.176,0,0,0,3-.852l.852,1.574a8.174,8.174,0,0,1-4.429,1.277c-3.287-.007-5.14-2.154-5.137-4.3.007-2.4,1.9-4.569,5.439-4.562a7.5,7.5,0,0,1,6.707,4.444l.016-7.857c0-2.227-1.825-3.571-4.708-3.582s-4.717,1.334-4.721,3.563l-2.716-.007c.007-3.254,3.184-5.706,7.442-5.7s7.424,2.471,7.42,5.729l-.018,9.144c0,1.83-.265,2.857-2.294,2.853h-.856c0-2.713-2.387-6.577-5.987-6.587" transform="translate(-17.311 -174.463)"></path><path d="M133.068,193.133a2.136,2.136,0,0,1-.891,0,1.793,1.793,0,0,1-1.457-1.93c.159-1.569,1.706-1.752,1.85-3.392a4.682,4.682,0,0,1,1.984,3.483,1.9,1.9,0,0,1-1.485,1.841M132.5,181.96c-.317,3.571-3.678,3.972-4.029,7.389-.359,3.5,3.174,4.2,3.174,4.2a4.561,4.561,0,0,0,1.937,0,4.14,4.14,0,0,0,3.236-4c.007-3.534-2.513-6.126-4.315-7.589" transform="translate(-7.152 -181.958)"></path><path d="M132.28,205.653c-1.746,0-2.57-1.09-2.567-2.862l.029-14.859,2.716.007-.029,14.857c0,.714.141,1,.714,1a1.442,1.442,0,0,0,.856-.283l.569,1.429a3.917,3.917,0,0,1-2.286.708" transform="translate(-5.529 -174.287)"></path></g></g></g></svg> 