<?xml version="1.0" encoding="UTF-8"?> <svg xmlns="http://www.w3.org/2000/svg" width="305" height="117" viewBox="0 0 305 117"><defs><style>.a{fill:none;}</style></defs><g transform="translate(-720 -706)"><rect class="a" width="305" height="117" transform="translate(720 706)"></rect><g transform="translate(783.1 751)"><path d="M268,27.2l8.133-22.3h3.41l-8.133,22.3Z" transform="translate(-148.043 -2.758)"></path><g transform="translate(135.773 0)"><path d="M305.639,9.784a2.757,2.757,0,0,0,1.4.35,2.854,2.854,0,0,0,1.268-.262,2.271,2.271,0,0,0,.827-.743,1.879,1.879,0,0,0,.306-1.093h-1.53a1.549,1.549,0,0,1-.138.481,1.021,1.021,0,0,1-.306.306,1.276,1.276,0,0,1-.393.087.657.657,0,0,1-.481-.175,1.058,1.058,0,0,1-.35-.481,2.118,2.118,0,0,1-.138-.787,1.741,1.741,0,0,1,.138-.743.988.988,0,0,1,.35-.481.916.916,0,0,1,.481-.175.827.827,0,0,1,.568.219,1.135,1.135,0,0,1,.262.612h1.53a2.141,2.141,0,0,0-.306-1.093,2.27,2.27,0,0,0-.827-.743,2.793,2.793,0,0,0-1.224-.262,2.885,2.885,0,0,0-1.4.35,1.974,1.974,0,0,0-.874.918,2.872,2.872,0,0,0-.306,1.4,2.872,2.872,0,0,0,.306,1.4,2.058,2.058,0,0,0,.837.917Z" transform="translate(-304.356 -2.7)"></path><path d="M319.374,7.206a.934.934,0,0,1,.138-.525,1.332,1.332,0,0,1,.35-.35,1.04,1.04,0,0,1,.525-.138,1.086,1.086,0,0,1,.35.044c.138,0,.219.044.306.044V4.844c-.087,0-.138-.044-.219-.044h-.219a1.188,1.188,0,0,0-.743.262,1.412,1.412,0,0,0-.437.743h-.044V4.84H317.8V10h1.618v-2.8Z" transform="translate(-311.837 -2.7)"></path><path d="M326.885,9.728a2.871,2.871,0,0,0,1.4.306,3.339,3.339,0,0,0,1.181-.219,2.333,2.333,0,0,0,.827-.568,1.606,1.606,0,0,0,.393-.874L329.2,8.329a.67.67,0,0,1-.481.481,1.21,1.21,0,0,1-.393.044.933.933,0,0,1-.525-.138,1.331,1.331,0,0,1-.35-.35,1.211,1.211,0,0,1-.138-.568V7.761h3.41V7.367a3.108,3.108,0,0,0-.175-1.137,2.688,2.688,0,0,0-.525-.827,2.481,2.481,0,0,0-.787-.525,2.566,2.566,0,0,0-1.006-.175,2.714,2.714,0,0,0-1.355.35,2.214,2.214,0,0,0-.874.918,2.872,2.872,0,0,0-.306,1.4,2.872,2.872,0,0,0,.306,1.4A1.883,1.883,0,0,0,326.885,9.728Zm.874-3.674a.947.947,0,0,1,.965,0,1.179,1.179,0,0,1,.35.306.881.881,0,0,1,.138.481h-1.88a.739.739,0,0,1,.138-.437.606.606,0,0,1,.29-.35Z" transform="translate(-316.285 -2.644)"></path><path d="M341.347,9.685a1.711,1.711,0,0,0,.35-.436h.044v.7h1.53v-3.5a1.438,1.438,0,0,0-.175-.743,1.389,1.389,0,0,0-.481-.525,2.947,2.947,0,0,0-1.663-.481,2.993,2.993,0,0,0-1.181.219,2.6,2.6,0,0,0-.787.568,1.424,1.424,0,0,0-.35.827l1.53.044a.637.637,0,0,1,.262-.394.932.932,0,0,1,.525-.138.786.786,0,0,1,.481.138.426.426,0,0,1,.175.394h0a.378.378,0,0,1-.138.262,2.036,2.036,0,0,1-.394.138c-.175.044-.394.044-.7.087a3.755,3.755,0,0,0-.743.138c-.219.087-.437.175-.612.262a1.069,1.069,0,0,0-.393.481,1.884,1.884,0,0,0-.138.743,1.555,1.555,0,0,0,.219.827,1.13,1.13,0,0,0,.612.481,1.841,1.841,0,0,0,.874.175,3.373,3.373,0,0,0,.656-.087A.693.693,0,0,0,341.347,9.685Zm-1.093-.874a.426.426,0,0,1-.175-.394.632.632,0,0,1,.087-.306c.044-.087.138-.138.262-.219a2.036,2.036,0,0,1,.393-.138,1.891,1.891,0,0,0,.219-.044c.087,0,.175-.044.262-.044s.138-.044.219-.044a.227.227,0,0,0,.175-.087v.481a.739.739,0,0,1-.138.437,1.178,1.178,0,0,1-.35.306.866.866,0,0,1-.481.087.456.456,0,0,1-.473-.034Z" transform="translate(-323.489 -2.645)"></path><path d="M351.656,7.042a1.378,1.378,0,0,0,.219.874,1.779,1.779,0,0,0,.612.525,1.827,1.827,0,0,0,1.006.138c.175,0,.35-.044.525-.044.138-.044.262-.044.35-.087l-.262-1.181a.331.331,0,0,0-.175.044c-.087.044-.138,0-.219,0a.328.328,0,0,1-.219-.044c-.044-.044-.138-.087-.138-.138-.044-.044-.044-.138-.044-.262V4.55h.918V3.324h-.918V2.1h-1.618V3.324H351V4.548h.7V7.042Z" transform="translate(-330.518 -1.182)"></path><rect width="1.618" height="5.16" transform="translate(24.549 2.142)"></rect><path d="M360.974,1.574a1.045,1.045,0,0,0,.612-.219.706.706,0,0,0,.262-.568.769.769,0,0,0-.262-.568A.948.948,0,0,0,360.974,0a1.045,1.045,0,0,0-.612.219.706.706,0,0,0-.262.568.769.769,0,0,0,.262.568,1.161,1.161,0,0,0,.612.219Z" transform="translate(-335.639 0)"></path><path d="M369.03,10.06l1.792-5.16h-1.749l-.915,3.543h-.087L367.152,4.9H365.4l1.792,5.16Z" transform="translate(-338.62 -2.758)"></path><path d="M383.429,7.761V7.367a3.11,3.11,0,0,0-.175-1.137,2.691,2.691,0,0,0-.525-.827,2.481,2.481,0,0,0-.787-.525,2.565,2.565,0,0,0-1.006-.175,2.714,2.714,0,0,0-1.355.35,2.215,2.215,0,0,0-.874.918,2.873,2.873,0,0,0-.306,1.4,2.872,2.872,0,0,0,.306,1.4,2.32,2.32,0,0,0,.918.918,2.871,2.871,0,0,0,1.4.306,3.339,3.339,0,0,0,1.181-.219,2.333,2.333,0,0,0,.827-.568,1.606,1.606,0,0,0,.394-.874l-1.483-.048a.67.67,0,0,1-.481.481,1.21,1.21,0,0,1-.394.044.933.933,0,0,1-.525-.138,1.329,1.329,0,0,1-.35-.35,1.21,1.21,0,0,1-.138-.568V7.717h3.368ZM380.5,6.056a.947.947,0,0,1,.965,0,1.18,1.18,0,0,1,.35.306.881.881,0,0,1,.138.481h-1.88a.739.739,0,0,1,.138-.437.49.49,0,0,1,.289-.352Z" transform="translate(-345.936 -2.644)"></path><path d="M307.943,23.219h0a1.572,1.572,0,0,0-.306-.437,1.371,1.371,0,0,0-.481-.35,1.666,1.666,0,0,0-.7-.138,2.032,2.032,0,0,0-1.006.262,1.858,1.858,0,0,0-.743.874,3.921,3.921,0,0,0-.044,2.929,1.858,1.858,0,0,0,.743.874,2.1,2.1,0,0,0,1.049.306,1.459,1.459,0,0,0,.656-.138,1.24,1.24,0,0,0,.481-.35,2.646,2.646,0,0,0,.306-.437h.044v.827h1.618V20.6h-1.617Zm-.087,2.406a1.3,1.3,0,0,1-.306.481.874.874,0,0,1-1.049,0,.919.919,0,0,1-.306-.481,1.883,1.883,0,0,1-.138-.743,2.739,2.739,0,0,1,.087-.7,1.131,1.131,0,0,1,.306-.481.7.7,0,0,1,.525-.175.764.764,0,0,1,.525.175.717.717,0,0,1,.306.481,1.885,1.885,0,0,1,.138.743,3.4,3.4,0,0,1-.09.7Z" transform="translate(-304.298 -11.591)"></path><path d="M319.887,19.819a.948.948,0,0,0-.612-.219,1.045,1.045,0,0,0-.612.219.706.706,0,0,0-.262.568.769.769,0,0,0,.262.568.949.949,0,0,0,.612.219,1.045,1.045,0,0,0,.612-.219.706.706,0,0,0,.262-.568.769.769,0,0,0-.262-.568Z" transform="translate(-312.174 -11.028)"></path><rect width="1.618" height="5.16" transform="translate(6.313 10.758)"></rect><path d="M329.155,30.755a1.812,1.812,0,0,0,.35-1.093V24.546h-1.62v.874h-.044a1,1,0,0,0-.306-.437,1.37,1.37,0,0,0-.481-.35,1.812,1.812,0,0,0-.7-.138,2.032,2.032,0,0,0-1.006.262,1.859,1.859,0,0,0-.743.874,3.922,3.922,0,0,0-.044,2.929,1.971,1.971,0,0,0,.743.827,2.077,2.077,0,0,0,1.049.262,2.646,2.646,0,0,0,.656-.087,1.132,1.132,0,0,0,.481-.306,1.574,1.574,0,0,0,.306-.437h.044v.918a.768.768,0,0,1-.262.656,1.1,1.1,0,0,1-.7.175,1.348,1.348,0,0,1-.437-.044.705.705,0,0,1-.306-.175.552.552,0,0,1-.175-.262l-1.53.087a1.822,1.822,0,0,0,.35.787,2,2,0,0,0,.827.568,3.656,3.656,0,0,0,1.268.219,4.192,4.192,0,0,0,1.355-.219,3.331,3.331,0,0,0,.925-.775Zm-1.4-2.973a1.117,1.117,0,0,1-.306.437.938.938,0,0,1-.525.175.7.7,0,0,1-.525-.175.8.8,0,0,1-.306-.437,1.666,1.666,0,0,1-.138-.7,3.041,3.041,0,0,1,.087-.7,1.131,1.131,0,0,1,.306-.481.7.7,0,0,1,.525-.175.764.764,0,0,1,.525.175.717.717,0,0,1,.306.481,1.814,1.814,0,0,1,.138.7,1.6,1.6,0,0,1-.087.7Z" transform="translate(-315.496 -13.788)"></path><path d="M339.274,19.6a1.045,1.045,0,0,0-.612.219.706.706,0,0,0-.262.568.769.769,0,0,0,.262.568.948.948,0,0,0,.612.219,1.045,1.045,0,0,0,.612-.219.706.706,0,0,0,.262-.568.77.77,0,0,0-.262-.568,1.045,1.045,0,0,0-.612-.219Z" transform="translate(-323.429 -11.028)"></path><rect width="1.618" height="5.16" transform="translate(15.015 10.758)"></rect><path d="M344.556,26.642a1.378,1.378,0,0,0,.219.874,1.778,1.778,0,0,0,.612.525,1.825,1.825,0,0,0,1.006.138c.175,0,.35-.044.525-.044.138-.044.262-.044.35-.087l-.262-1.181a.33.33,0,0,0-.175.044c-.087.044-.138,0-.219,0a.328.328,0,0,1-.219-.044c-.044-.044-.138-.087-.138-.138-.044-.044-.044-.138-.044-.262V24.15h.918V22.926h-.918V21.7h-1.618v1.224H343.9v1.224h.7v2.492Z" transform="translate(-326.523 -12.21)"></path><path d="M355.446,29.285a1.71,1.71,0,0,0,.35-.437h.044v.7h1.53v-3.5a1.439,1.439,0,0,0-.175-.743,1.389,1.389,0,0,0-.481-.525,2.947,2.947,0,0,0-1.662-.481,2.993,2.993,0,0,0-1.181.219,2.6,2.6,0,0,0-.787.568,1.426,1.426,0,0,0-.35.827l1.53.044a.637.637,0,0,1,.262-.394.933.933,0,0,1,.525-.138.786.786,0,0,1,.481.138.426.426,0,0,1,.175.394h0a.378.378,0,0,1-.138.262,2.03,2.03,0,0,1-.393.138c-.175.044-.394.044-.7.087a3.755,3.755,0,0,0-.743.138c-.219.087-.437.175-.612.262a1.07,1.07,0,0,0-.393.481,1.885,1.885,0,0,0-.138.743,1.557,1.557,0,0,0,.219.827,1.13,1.13,0,0,0,.612.481,1.842,1.842,0,0,0,.874.175,3.376,3.376,0,0,0,.656-.087.52.52,0,0,0,.495-.181Zm-1.093-.827a.426.426,0,0,1-.175-.394.631.631,0,0,1,.087-.306c.044-.087.138-.138.262-.219a2.035,2.035,0,0,1,.394-.138,1.893,1.893,0,0,0,.219-.044c.087,0,.175-.044.262-.044s.138-.044.219-.044a.227.227,0,0,0,.175-.087v.481a.74.74,0,0,1-.138.437,1.18,1.18,0,0,1-.35.306.865.865,0,0,1-.481.087.441.441,0,0,1-.474-.037Z" transform="translate(-331.422 -13.673)"></path><rect width="1.618" height="6.866" transform="translate(26.955 9.009)"></rect><path d="M308.315,44.481A2.947,2.947,0,0,0,306.654,44a2.993,2.993,0,0,0-1.181.219,2.6,2.6,0,0,0-.787.568,1.424,1.424,0,0,0-.35.827l1.53.044a.637.637,0,0,1,.262-.394.933.933,0,0,1,.525-.138.786.786,0,0,1,.481.138.426.426,0,0,1,.175.394h0a.378.378,0,0,1-.138.262,2.034,2.034,0,0,1-.394.138c-.175.044-.393.044-.7.087a3.754,3.754,0,0,0-.743.138c-.219.087-.437.175-.612.262a1.07,1.07,0,0,0-.394.481,1.885,1.885,0,0,0-.138.743,1.556,1.556,0,0,0,.219.827,1.132,1.132,0,0,0,.612.481,1.842,1.842,0,0,0,.874.175,3.376,3.376,0,0,0,.656-.087,1.042,1.042,0,0,0,.481-.262,1.714,1.714,0,0,0,.35-.437h.044v.7h1.53V45.661a1.438,1.438,0,0,0-.175-.743,1.6,1.6,0,0,0-.466-.437Zm-.965,2.929a.739.739,0,0,1-.138.437,1.179,1.179,0,0,1-.35.306.866.866,0,0,1-.481.087.882.882,0,0,1-.481-.138.426.426,0,0,1-.175-.394.632.632,0,0,1,.087-.306c.044-.087.138-.138.262-.219a2.035,2.035,0,0,1,.394-.138,1.9,1.9,0,0,0,.219-.044c.087,0,.175-.044.262-.044s.138-.044.219-.044a.227.227,0,0,0,.175-.087v.568Z" transform="translate(-304.189 -24.759)"></path><path d="M320.485,45.02h-.044a1,1,0,0,0-.306-.437,1.37,1.37,0,0,0-.481-.35,1.813,1.813,0,0,0-.7-.138,2.032,2.032,0,0,0-1.006.262,1.858,1.858,0,0,0-.743.874,3.922,3.922,0,0,0-.044,2.929,1.971,1.971,0,0,0,.743.827,2.077,2.077,0,0,0,1.049.262,2.647,2.647,0,0,0,.656-.087,1.132,1.132,0,0,0,.481-.306,1.573,1.573,0,0,0,.306-.437h.044v.874a.768.768,0,0,1-.262.656,1.1,1.1,0,0,1-.7.175,1.349,1.349,0,0,1-.437-.044.7.7,0,0,1-.306-.175.552.552,0,0,1-.175-.262l-1.53.087a1.823,1.823,0,0,0,.35.787,2,2,0,0,0,.827.568,3.656,3.656,0,0,0,1.268.219,4.192,4.192,0,0,0,1.355-.219,2.068,2.068,0,0,0,.918-.656,1.812,1.812,0,0,0,.35-1.093v-5.19h-1.613Zm-.087,2.406a1.117,1.117,0,0,1-.306.437.938.938,0,0,1-.525.175.7.7,0,0,1-.525-.175.8.8,0,0,1-.306-.437,1.665,1.665,0,0,1-.138-.7,3.043,3.043,0,0,1,.087-.7,1.132,1.132,0,0,1,.306-.481.7.7,0,0,1,.525-.175.764.764,0,0,1,.525.175.717.717,0,0,1,.306.481,1.815,1.815,0,0,1,.138.7,1.24,1.24,0,0,1-.085.7Z" transform="translate(-311.331 -24.816)"></path><path d="M335.13,44.7a2.481,2.481,0,0,0-.787-.525A2.566,2.566,0,0,0,333.336,44a2.714,2.714,0,0,0-1.355.35,2.214,2.214,0,0,0-.874.918,3.353,3.353,0,0,0,0,2.8,2.319,2.319,0,0,0,.918.918,2.872,2.872,0,0,0,1.4.306,3.339,3.339,0,0,0,1.181-.219,2.333,2.333,0,0,0,.827-.568,1.606,1.606,0,0,0,.394-.874l-1.485-.046a.67.67,0,0,1-.481.481,1.212,1.212,0,0,1-.394.044.932.932,0,0,1-.525-.138,1.329,1.329,0,0,1-.35-.35,1.21,1.21,0,0,1-.138-.568h3.41v-.434a3.107,3.107,0,0,0-.175-1.137,3.641,3.641,0,0,0-.56-.782Zm-2.712,1.4a.739.739,0,0,1,.138-.437,1.331,1.331,0,0,1,.35-.35.947.947,0,0,1,.965,0,1.177,1.177,0,0,1,.35.306.881.881,0,0,1,.138.481Z" transform="translate(-319.152 -24.759)"></path><path d="M348.311,44.262a1.9,1.9,0,0,0-1.93,0,1.378,1.378,0,0,0-.568.743h-.044v-.965H344.2V49.2h1.618V46.275a1.57,1.57,0,0,1,.087-.481.689.689,0,0,1,.306-.306.827.827,0,0,1,1.049.138,1.073,1.073,0,0,1,.219.656v2.973H349.1V45.969a2.28,2.28,0,0,0-.219-1.006A1.28,1.28,0,0,0,348.311,44.262Z" transform="translate(-326.692 -24.759)"></path><path d="M359.6,45.343a.917.917,0,0,1,.481-.175.827.827,0,0,1,.568.219,1.135,1.135,0,0,1,.262.612h1.53a2.141,2.141,0,0,0-.306-1.093,2.272,2.272,0,0,0-.827-.743,2.794,2.794,0,0,0-1.224-.262,2.885,2.885,0,0,0-1.4.35,1.974,1.974,0,0,0-.874.918,3.351,3.351,0,0,0,0,2.8,2.525,2.525,0,0,0,.874.918,2.757,2.757,0,0,0,1.4.35,2.855,2.855,0,0,0,1.268-.262,2.272,2.272,0,0,0,.827-.743,1.878,1.878,0,0,0,.306-1.093h-1.53a1.552,1.552,0,0,1-.138.481,1.021,1.021,0,0,1-.306.306,1.276,1.276,0,0,1-.394.087.658.658,0,0,1-.481-.175,1.059,1.059,0,0,1-.35-.481,2.12,2.12,0,0,1-.138-.787,1.742,1.742,0,0,1,.138-.743.717.717,0,0,1,.314-.483Z" transform="translate(-334.174 -24.701)"></path><path d="M372.512,47.874h-.044L371.5,44.2h-1.7l1.836,5.335-.044.175a.467.467,0,0,1-.394.306,1.707,1.707,0,0,1-.612-.087l-.35,1.181c.138.044.262.087.437.138a3.2,3.2,0,0,0,1.574-.138,1.93,1.93,0,0,0,.656-.525,2.432,2.432,0,0,0,.393-.743l1.93-5.641h-1.7Z" transform="translate(-341.096 -24.87)"></path></g><g transform="translate(4.9 2.139)"><path d="M35.862,4.9h-3.41L26.022,22.524,19.594,4.9H16.139l2.536,6.953L14.784,22.524,8.355,4.9H4.9l8.133,22.3h3.455l3.892-10.671L24.271,27.2h3.457Z" transform="translate(-4.9 -4.897)"></path><path d="M90.711,4.9V18.064a7.236,7.236,0,0,0,.918,4.111,4.963,4.963,0,0,0,7.785,0,7.139,7.139,0,0,0,.918-4.111V4.9h3.324V19.026a7.819,7.819,0,0,1-2.186,5.685,8.446,8.446,0,0,1-11.982,0A7.889,7.889,0,0,1,87.3,19.026V4.9Z" transform="translate(-51.266 -4.897)"></path><path d="M140.5,27.2V4.9H144a16.709,16.709,0,0,1,3.722.35,5.47,5.47,0,0,1,3.892,3.324,6.122,6.122,0,0,1,.568,2.581,5.276,5.276,0,0,1-1.88,4.067,5.288,5.288,0,0,1,2.887,2.142,6.006,6.006,0,0,1,1.049,3.5,5.828,5.828,0,0,1-1.93,4.411,6.056,6.056,0,0,1-2.581,1.53,16.318,16.318,0,0,1-3.936.437H140.5ZM144,14.477h1.093a4.017,4.017,0,0,0,2.843-.827,3.135,3.135,0,0,0,.918-2.45,3.1,3.1,0,0,0-.918-2.406,4.1,4.1,0,0,0-2.712-.827H144Zm0,9.577h2.142a5.644,5.644,0,0,0,3.455-.874,3.023,3.023,0,0,0,1.181-2.45,3.088,3.088,0,0,0-1.137-2.406,5.886,5.886,0,0,0-3.892-.965H144Z" transform="translate(-81.2 -4.898)"></path><path d="M185.6,27.2V4.9h3.5a16.709,16.709,0,0,1,3.722.35,5.47,5.47,0,0,1,3.892,3.324,6.122,6.122,0,0,1,.568,2.581,5.276,5.276,0,0,1-1.88,4.067,5.288,5.288,0,0,1,2.887,2.142,6.006,6.006,0,0,1,1.049,3.5,5.828,5.828,0,0,1-1.93,4.411,6.056,6.056,0,0,1-2.581,1.53,16.318,16.318,0,0,1-3.936.437H185.6Zm3.5-12.727h1.093a4.017,4.017,0,0,0,2.842-.827,3.135,3.135,0,0,0,.918-2.45,3.1,3.1,0,0,0-.918-2.406,4.1,4.1,0,0,0-2.712-.827H189.1Zm0,9.577h2.142a5.644,5.644,0,0,0,3.455-.874,3.023,3.023,0,0,0,1.181-2.45,3.088,3.088,0,0,0-1.137-2.406,5.886,5.886,0,0,0-3.892-.965H189.1Z" transform="translate(-106.577 -4.898)"></path><path d="M242.626,8.149h-8.7v5.335h8.483v3.193h-8.483v7.434h8.7V27.3H230.6V5h12.026Z" transform="translate(-131.897 -4.953)"></path></g></g></g></svg> 